<?xml version="1.0" standalone="no"?>
<!DOCTYPE svg>
<svg version="1.0" xmlns="http://www.w3.org/2000/svg"
 width="240.000000pt" height="240.000000pt" viewBox="0 0 240.000000 240.000000"
 preserveAspectRatio="xMidYMid meet">

<g transform="translate(0.000000,240.000000) scale(0.100000,-0.100000)"
fill="#000000" stroke="none">
<path d="M0 1200 l0 -1200 1200 0 1200 0 0 1200 0 1200 -1200 0 -1200 0 0
-1200z m1068 974 c66 -15 150 -53 171 -78 20 -24 9 -77 -21 -99 l-27 -20 -83
33 c-148 58 -290 53 -430 -17 -177 -89 -293 -296 -274 -491 6 -57 5 -64 -18
-87 -28 -28 -43 -30 -80 -14 -39 18 -49 57 -43 167 12 241 139 443 347 551
147 77 285 93 458 55z m-51 -269 c28 -8 73 -30 100 -48 41 -27 48 -37 51 -69
2 -27 -2 -41 -19 -57 -30 -28 -46 -27 -112 8 -76 40 -124 46 -192 26 -41 -11
-69 -28 -99 -59 -57 -57 -70 -99 -63 -204 6 -79 5 -85 -18 -108 -52 -52 -109
-14 -127 84 -34 182 83 371 265 427 57 18 153 18 214 0z m1078 -272 c-17 -92
-111 -205 -212 -254 -46 -23 -61 -24 -328 -30 -154 -4 -294 -11 -310 -16 -205
-68 -326 -254 -294 -455 21 -137 107 -250 236 -310 55 -26 81 -32 162 -36 178
-8 260 24 397 159 58 56 109 97 140 111 52 23 180 36 229 24 25 -6 27 -10 20
-44 -12 -63 -61 -180 -106 -248 -95 -146 -283 -276 -449 -310 -112 -23 -361
-15 -450 16 -88 30 -144 60 -216 114 -335 252 -391 736 -121 1052 67 80 136
136 217 178 153 79 189 84 674 85 l418 1 -7 -37z"/>
</g>
</svg>
